<svg xmlns="http://www.w3.org/2000/svg" width="16" height="13.966"><path fill="#FFF" d="M16 1.607c-.556.31-1.235.495-1.854.556.68-.434 1.174-1.112 1.421-1.914a7.09 7.09 0 0 1-2.1.864C12.85.434 12.047 0 11.12 0 9.328 0 7.846 1.545 7.846 3.522c0 .249 0 .557.062.805C5.189 4.202 2.78 2.781 1.174.681.865 1.175.741 1.794.741 2.474c0 1.233.557 2.286 1.421 2.902-.556 0-1.05-.185-1.482-.433v.063c0 1.667 1.111 3.089 2.595 3.459a3.543 3.543 0 0 1-.866.124c-.185 0-.433 0-.618-.06.434 1.419 1.607 2.408 3.027 2.408-1.111.929-2.532 1.482-4.016 1.482-.246 0-.494 0-.803-.062 1.421.99 3.15 1.607 5.004 1.607 5.992 0 9.267-5.314 9.267-9.948v-.433c.742-.616 1.297-1.234 1.73-1.976z"/></svg>