<svg xmlns="http://www.w3.org/2000/svg" width="13.474" height="13.141" viewBox="299.5 953.424 13.474 13.141"><path fill="#FFF" d="M310.383 953.424h-8.292c-1.439 0-2.591 1.122-2.591 2.526v8.088c0 1.403 1.15 2.526 2.591 2.526h8.292c1.438 0 2.591-1.123 2.591-2.526v-8.088c0-1.405-1.152-2.526-2.591-2.526zm.748 1.515h.288v2.245h-2.304v-2.245h2.016zm-6.794 3.707c.402-.563 1.15-.955 1.899-.955.748 0 1.497.393 1.899.955.288.394.461.844.461 1.347 0 1.292-1.094 2.305-2.36 2.305-1.266 0-2.361-1.013-2.361-2.305 0-.504.174-.954.462-1.347zm7.312 5.392c0 .675-.575 1.235-1.267 1.235h-8.292c-.69 0-1.268-.563-1.268-1.235v-5.393h2.017a3.532 3.532 0 0 0-.288 1.347c0 1.969 1.67 3.597 3.686 3.597s3.686-1.628 3.686-3.597a3.56 3.56 0 0 0-.287-1.347h2.015l-.002 5.393z"/></svg>