<svg xmlns="http://www.w3.org/2000/svg" width="86.5" height="86" viewBox="249.5 75.5 86.5 86"><path fill="#FFF" d="M292.998 78.998c-22.099 0-40.001 17.902-40.001 39.995 0 6.192 1.402 12.062 3.924 17.301v.013h.007a.222.222 0 0 0 .024.057h.01c.274.389 1.06.322 1.793-.057.757-.379 1.104-1.088.886-1.562a36.736 36.736 0 0 1-3.523-15.752c0-20.365 16.51-36.878 36.882-36.878 20.36 0 36.879 16.509 36.879 36.878 0 20.375-16.513 36.892-36.879 36.892-6.5 0-12.605-1.691-17.908-4.646-.011-.016-.021-.023-.031-.033-.414-.314-1.17-.023-1.695.656-.508.664-.484 1.557-.104 1.896-.007 0-.007.016-.017.016A39.822 39.822 0 0 0 293 159c22.086 0 40-17.912 40-40.004-.002-22.092-17.912-39.998-40.002-39.998zm-30.73 65.75a2.11 2.11 0 0 0 2.113 2.111 2.112 2.112 0 1 0 0-4.226 2.114 2.114 0 0 0-2.113 2.115zm19.482-8.916c0 .641.547 1.146 1.217 1.146.262 0 .506-.082.703-.215l28.633-16.521c.5-.168.873-.651.873-1.235a1.28 1.28 0 0 0-.898-1.236l-28.497-16.461a1.285 1.285 0 0 0-.813-.291c-.672 0-1.219.518-1.219 1.147 0 .093.018.181.031.261v33.139c-.012.088-.03.168-.03.266zm3.129-28.187c0-.428.358-.776.819-.776a.82.82 0 0 1 .541.2l19.23 11.103a.872.872 0 0 1 .604.832.872.872 0 0 1-.598.834l-19.305 11.164a.867.867 0 0 1-.474.127c-.453 0-.819-.342-.819-.774 0-.055.004-.105.02-.174v-22.357a.783.783 0 0 1-.018-.179z"/></svg>