<svg xmlns="http://www.w3.org/2000/svg" width="14.316" height="8.216" viewBox="298.342 955.279 14.316 8.216"><path fill="#FFF" d="M311.271 956.441h-3.587v-.82h3.587v.82zm-5.975 3.372c.23.329.347.729.347 1.202 0 .484-.13.926-.396 1.311-.166.254-.38.474-.63.646-.284.2-.619.337-1.006.411a6.803 6.803 0 0 1-1.258.111h-4.011v-8.216h4.302c1.084.018 1.853.307 2.307.874.272.352.407.769.407 1.256 0 .502-.137.902-.411 1.208-.152.171-.38.327-.679.469.454.154.797.394 1.028.728zm-4.9-1.294h1.885c.389 0 .701-.068.941-.203.241-.137.36-.377.36-.723 0-.385-.158-.637-.479-.76-.273-.086-.625-.129-1.051-.129h-1.658l.002 1.815zm3.37 2.378c0-.428-.188-.724-.566-.881-.211-.089-.509-.136-.891-.139h-1.912v2.188h1.883c.387 0 .687-.046.901-.143.389-.179.585-.519.585-1.025zm8.836-1.336c.043.269.063.658.055 1.169h-4.646c.024.591.247 1.004.667 1.24.253.148.561.221.92.221.379 0 .688-.088.926-.268.129-.099.243-.232.342-.406h1.703c-.045.351-.25.704-.618 1.063-.569.572-1.371.858-2.398.858-.851 0-1.599-.241-2.248-.723-.647-.484-.974-1.271-.974-2.357 0-1.021.292-1.802.879-2.348.589-.545 1.347-.815 2.281-.815a3.95 3.95 0 0 1 1.501.274c.444.186.813.477 1.103.872.259.352.427.76.507 1.22zm-1.676.154c-.031-.408-.181-.719-.446-.931-.265-.212-.595-.318-.989-.318-.428 0-.76.112-.994.339-.236.222-.385.524-.444.91h2.873z"/></svg>