<?xml version="1.0" encoding="utf-8"?>
<!-- Generator: Adobe Illustrator 16.0.0, SVG Export Plug-In . SVG Version: 6.00 Build 0)  -->
<!DOCTYPE svg PUBLIC "-//W3C//DTD SVG 1.1//EN" "http://www.w3.org/Graphics/SVG/1.1/DTD/svg11.dtd">
<svg version="1.1" id="Layer_1" xmlns="http://www.w3.org/2000/svg" xmlns:xlink="http://www.w3.org/1999/xlink" x="0px" y="0px"
	 width="14px" height="14px" viewBox="0 0 14 14" enable-background="new 0 0 14 14" xml:space="preserve">
<path fill="#FFFFFF" d="M1.309,0.576c0.46-0.514,0.973-0.65,1.481-0.54c1.405,0.304,2.965,3.02,2.317,4.076
	C4.948,4.371,4.778,4.523,4.625,4.663c-1.182,1.063,3.539,5.89,4.688,4.765c0.148-0.146,0.312-0.304,0.583-0.449
	c1.105-0.59,3.823,1.037,4.079,2.423c0.091,0.501-0.067,0.995-0.612,1.424c-1.436,1.131-2.371,1.476-4.2,0.901
	c-0.946-0.297-3.054-2.108-4.98-4.064C2.257,7.704,0.489,5.575,0.222,4.64C-0.293,2.83,0.095,1.93,1.309,0.576z"/>
</svg>
