<?xml version="1.0" encoding="utf-8"?>
<!-- Generator: Adobe Illustrator 16.0.0, SVG Export Plug-In . SVG Version: 6.00 Build 0)  -->
<!DOCTYPE svg PUBLIC "-//W3C//DTD SVG 1.1//EN" "http://www.w3.org/Graphics/SVG/1.1/DTD/svg11.dtd">
<svg version="1.1" id="Capa_1" xmlns="http://www.w3.org/2000/svg" xmlns:xlink="http://www.w3.org/1999/xlink" x="0px" y="0px"
	 width="32.5px" height="34.75px" viewBox="290.25 942.25 32.5 34.75" enable-background="new 290.25 942.25 32.5 34.75"
	 xml:space="preserve">
<g>
	<g>
		<g>
			<path fill="#FFFFFF" d="M308.919,949.153c0-1.612-1.308-2.919-2.919-2.919c-1.612,0-2.919,1.307-2.919,2.919v9.731
				c-2.686,0.003-4.862,2.18-4.865,4.866v5.207l3.892,4.865v1.605h1.946v-2.288l-3.893-4.866v-4.523
				c0-1.612,1.307-2.919,2.919-2.919v6.812h1.946v-18.49c0-0.537,0.436-0.973,0.973-0.973s0.973,0.436,0.973,0.973v8.529
				l3.182,0.868l0.513-1.878l-1.752-0.477L308.919,949.153z"/>
			
				<rect x="312.254" y="957.41" transform="matrix(0.9648 0.2629 -0.2629 0.9648 262.9827 -48.6348)" fill="#FFFFFF" width="1.946" height="1.946"/>
			<polygon fill="#FFFFFF" points="315.788,960.085 317.677,960.601 317.677,969.264 314.758,973.157 314.758,975.427 
				316.704,975.427 316.704,973.804 319.623,969.913 319.623,959.114 316.3,958.208 			"/>
			<polygon fill="#FFFFFF" points="295.983,945.948 294.607,944.572 291,948.18 294.607,951.787 295.983,950.411 294.725,949.153 
				297.241,949.153 297.241,947.206 294.725,947.206 			"/>
			<rect x="299.188" y="947.206" fill="#FFFFFF" width="1.946" height="1.946"/>
			<polygon fill="#FFFFFF" points="316.016,950.411 317.393,951.787 321,948.18 317.393,944.572 316.016,945.948 317.275,947.206 
				314.758,947.206 314.758,949.153 317.275,949.153 			"/>
			<rect x="310.865" y="947.206" fill="#FFFFFF" width="1.946" height="1.946"/>
		</g>
	</g>
</g>
</svg>
